<!DOCTYPE svg PUBLIC "-//W3C//DTD SVG 1.1//EN" "http://www.w3.org/Graphics/SVG/1.1/DTD/svg11.dtd">
<svg id="svg" viewBox="0 0 24 24" width="64" height="64"  
fill="none" strokeLinejoin="round" strokeLinecap="round" 
xmlns="http://www.w3.org/2000/svg">
<defs>
    <style><![CDATA[
       #svg {
         background-color: transparent;
       }
    ]]></style>
</defs>
<!-- Braces -->
<path stroke-width="2" stroke = "#f43f5e" d="M 6 2a 3 3 0 0 0 -3 3v 6a 1 1 0 0 1 -1 1l -1 0l 2 0v 7a 3 3 0 0 0 3 3"/>
<path stroke-width = "2" stroke="#f43f5e" d="M 18 2a 3 3 0 0 1 3 3v 6a 1 1 0 0 0 1 1l 1 0l -2 0v 7a 3 3 0 0 1 -3 3"/>
<!-- Letter R -->
<path stroke="#0f172a" stroke-width="3" d="M 9 20v -15a 4 3 0 0 1 1 8a6 6 0 0 1 5 5 l 0 2"/>
</svg>
